<?xml version="1.0" encoding="utf-8"?>
<!-- Generator: Adobe Illustrator 22.0.1, SVG Export Plug-In . SVG Version: 6.00 Build 0)  -->
<svg version="1.1" id="Ebene_1" xmlns="http://www.w3.org/2000/svg" xmlns:xlink="http://www.w3.org/1999/xlink" x="0px" y="0px"
	 viewBox="0 0 147.5 69.2" style="enable-background:new 0 0 147.5 69.2;" xml:space="preserve">
<style type="text/css">
	.st0{fill:#35495E;}
</style>
<g>
	<g>
		<path class="st0" d="M10.7,69.2c-2.1,0-3.9-0.3-5.5-1c-1.6-0.6-2.9-1.8-3.8-3.3C0.5,63.3,0,61.2,0,58.5V16.2h5.8v41.5
			c0,1.7,0.3,3,0.9,3.9S8,63.1,9,63.4s1.9,0.5,3,0.5h19v5.3C31,69.2,10.7,69.2,10.7,69.2z"/>
	</g>
	<g>
		<path class="st0" d="M25.2,53V0H46c1.7,0,3.4,0.2,5,0.6s3.1,1.2,4.4,2.3c1.3,1.1,2.4,2.7,3.1,4.7c0.8,2,1.2,4.7,1.2,8
			c0,2.9-0.3,5.2-0.9,7.1c-0.6,1.8-1.4,3.3-2.4,4.4s-2.1,1.9-3.3,2.4s-2.3,0.9-3.4,1L60.6,53h-5.8L44.5,31.3c-0.8,0-1.7,0-2.9-0.1
			c-1.2,0-2.4-0.1-3.7-0.1s-2.6,0-3.8-0.1c-1.2,0-2.3-0.1-3.2-0.1v22h-5.7V53z M30.9,26.6h14.3c1.2,0,2.4-0.1,3.5-0.4s2-0.8,2.8-1.6
			c0.8-0.8,1.5-1.9,1.9-3.3c0.5-1.4,0.7-3.3,0.7-5.6c0-2.2-0.2-4-0.7-5.4s-1.1-2.4-2-3.2c-0.8-0.7-1.8-1.2-2.8-1.5
			c-1.1-0.3-2.2-0.4-3.4-0.4H30.9V26.6z"/>
	</g>
	<g>
		<path class="st0" d="M38.6,69c-0.6,0-1.1-0.1-1.6-0.3c-0.5-0.2-0.8-0.5-1.1-1s-0.4-1.1-0.4-1.9V53.6h1.7v12.1
			c0,0.5,0.1,0.9,0.3,1.1c0.2,0.3,0.4,0.4,0.7,0.5s0.6,0.1,0.9,0.1h5.5V69H38.6z"/>
		<path class="st0" d="M48.9,69.2c-0.8,0-1.5-0.2-2-0.7s-0.8-1.2-0.8-2.1v-0.8c0-0.9,0.3-1.6,0.9-2.1c0.6-0.5,1.5-0.8,2.6-0.8h3.8
			v-1.4c0-0.5-0.1-0.9-0.2-1.2c-0.2-0.3-0.4-0.6-0.9-0.8c-0.4-0.2-1-0.3-1.8-0.3H47v-1c0.5-0.1,1.1-0.2,1.7-0.2s1.4-0.1,2.3-0.1
			c0.9,0,1.7,0.1,2.3,0.3s1,0.6,1.3,1.1s0.4,1.2,0.4,2V69h-1.3l-0.3-1.3c-0.1,0.1-0.2,0.2-0.5,0.3s-0.7,0.3-1.1,0.5
			c-0.4,0.2-0.9,0.3-1.4,0.5C49.9,69.1,49.4,69.2,48.9,69.2z M49.6,67.9c0.3,0,0.5,0,0.9-0.1c0.3-0.1,0.7-0.2,1-0.2
			c0.3-0.1,0.6-0.2,0.9-0.3s0.5-0.2,0.7-0.3c0.2-0.1,0.3-0.1,0.3-0.1v-3.5L50,63.5c-0.8,0-1.4,0.2-1.7,0.6c-0.3,0.4-0.5,0.8-0.5,1.4
			V66c0,0.4,0.1,0.8,0.3,1.1s0.4,0.5,0.7,0.6C49,67.8,49.3,67.9,49.6,67.9z"/>
		<path class="st0" d="M58.1,69V57.8h1.3l0.4,2c0.5-0.6,1.1-1.1,1.7-1.5c0.6-0.4,1.3-0.6,2.2-0.6c0.2,0,0.4,0,0.6,0
			c0.2,0,0.3,0,0.5,0.1v1.7c-0.2,0-0.4-0.1-0.6-0.1s-0.4,0-0.6,0c-0.5,0-1,0.1-1.4,0.2c-0.4,0.1-0.8,0.3-1.2,0.6s-0.7,0.6-1.1,0.9v8
			h-1.8V69z"/>
		<path class="st0" d="M67,55.8c-0.2,0-0.3-0.1-0.3-0.3v-1.6c0-0.2,0.1-0.3,0.3-0.3h1.2c0.1,0,0.2,0,0.2,0.1s0.1,0.1,0.1,0.2v1.6
			c0,0.2-0.1,0.3-0.3,0.3H67z M66.8,69V57.8h1.7V69H66.8z"/>
		<path class="st0" d="M75.5,69.2c-0.3,0-0.6,0-1,0s-0.8,0-1.3-0.1C72.8,69,72.4,69,72,69s-0.6-0.1-0.8-0.1v-1h4.6
			c0.5,0,0.9,0,1.2-0.1s0.6-0.2,0.8-0.5c0.2-0.2,0.3-0.6,0.3-1.1v-0.5c0-0.5-0.2-0.9-0.5-1.1c-0.3-0.3-0.8-0.4-1.6-0.4h-1.6
			c-0.7,0-1.2-0.1-1.8-0.3c-0.5-0.2-0.9-0.5-1.2-0.9c-0.3-0.4-0.4-1-0.4-1.7v-0.6c0-0.7,0.1-1.3,0.4-1.7s0.7-0.8,1.3-1
			c0.6-0.2,1.3-0.3,2.3-0.3c0.4,0,0.8,0,1.4,0c0.5,0,1,0.1,1.5,0.1s0.9,0.1,1.2,0.2v1h-4.3c-0.7,0-1.3,0.1-1.6,0.4
			c-0.4,0.2-0.6,0.7-0.6,1.4v0.5c0,0.4,0.1,0.8,0.3,1c0.2,0.2,0.4,0.4,0.8,0.4c0.3,0.1,0.7,0.1,1.1,0.1h1.6c1,0,1.8,0.2,2.4,0.7
			s0.8,1.2,0.8,2.1v0.8c0,0.8-0.2,1.3-0.5,1.8c-0.3,0.4-0.8,0.7-1.4,0.9S76.3,69.2,75.5,69.2z"/>
		<path class="st0" d="M84.3,69.2c-0.8,0-1.5-0.2-2-0.7s-0.8-1.2-0.8-2.1v-0.8c0-0.9,0.3-1.6,0.9-2.1s1.5-0.8,2.6-0.8h3.8v-1.4
			c0-0.5-0.1-0.9-0.2-1.2c-0.2-0.3-0.4-0.6-0.9-0.8c-0.4-0.2-1-0.3-1.8-0.3h-3.5v-1c0.5-0.1,1.1-0.2,1.7-0.2s1.4-0.1,2.3-0.1
			s1.7,0.1,2.3,0.3c0.6,0.2,1,0.6,1.3,1.1s0.4,1.2,0.4,2V69h-1.3l-0.3-1.3c-0.1,0.1-0.2,0.2-0.5,0.3s-0.7,0.3-1.1,0.5
			s-0.9,0.3-1.4,0.5C85.3,69.1,84.8,69.2,84.3,69.2z M85,67.9c0.3,0,0.5,0,0.9-0.1c0.3-0.1,0.7-0.2,1-0.2c0.3-0.1,0.6-0.2,0.9-0.3
			s0.5-0.2,0.7-0.3c0.2-0.1,0.3-0.1,0.3-0.1v-3.5l-3.4,0.1c-0.8,0-1.4,0.2-1.7,0.6c-0.3,0.4-0.5,0.8-0.5,1.4V66
			c0,0.4,0.1,0.8,0.3,1.1s0.4,0.5,0.7,0.6C84.4,67.8,84.7,67.9,85,67.9z"/>
		<path class="st0" d="M99.3,69V53.6h6.1c0.5,0,1,0.1,1.5,0.2s0.9,0.3,1.3,0.7c0.4,0.3,0.7,0.8,0.9,1.4s0.3,1.4,0.3,2.3
			c0,0.8-0.1,1.5-0.3,2.1c-0.2,0.5-0.4,1-0.7,1.3s-0.6,0.5-1,0.7c-0.3,0.1-0.7,0.2-1,0.3l3.2,6.6h-1.7l-3-6.3c-0.2,0-0.5,0-0.8,0
			s-0.7,0-1.1,0s-0.7,0-1.1,0s-0.7,0-0.9,0V69H99.3z M100.9,61.3h4.2c0.4,0,0.7,0,1-0.1s0.6-0.2,0.8-0.5c0.2-0.2,0.4-0.6,0.6-1
			c0.1-0.4,0.2-1,0.2-1.6s-0.1-1.2-0.2-1.6c-0.1-0.4-0.3-0.7-0.6-0.9c-0.2-0.2-0.5-0.4-0.8-0.4s-0.6-0.1-1-0.1h-4.2V61.3z"/>
		<path class="st0" d="M116.1,69.2c-1.2,0-2.1-0.2-2.8-0.5c-0.7-0.4-1.2-0.9-1.5-1.8s-0.4-2-0.4-3.4c0-1.5,0.2-2.6,0.5-3.5
			c0.3-0.8,0.8-1.4,1.5-1.8s1.6-0.5,2.8-0.5c1,0,1.8,0.1,2.4,0.3s1.1,0.6,1.4,1.1s0.5,1.3,0.5,2.2c0,0.7-0.1,1.2-0.4,1.6
			c-0.3,0.4-0.6,0.7-1.1,0.9s-1.1,0.3-1.7,0.3h-4.1c0,0.9,0.1,1.6,0.3,2.2c0.2,0.6,0.5,1,1,1.2s1.2,0.4,2.1,0.4h3.6v1
			c-0.6,0.1-1.3,0.2-1.9,0.2C117.6,69.1,116.9,69.2,116.1,69.2z M113,63h4c0.6,0,1.1-0.1,1.4-0.3s0.5-0.6,0.5-1.2
			c0-0.6-0.1-1.1-0.3-1.5s-0.5-0.6-0.9-0.8c-0.4-0.1-0.9-0.2-1.6-0.2c-0.8,0-1.4,0.1-1.8,0.3s-0.8,0.6-0.9,1.2
			C113.1,61.1,113,61.9,113,63z"/>
		<path class="st0" d="M123.4,55.8c-0.2,0-0.3-0.1-0.3-0.3v-1.6c0-0.2,0.1-0.3,0.3-0.3h1.2c0.1,0,0.2,0,0.2,0.1s0.1,0.1,0.1,0.2v1.6
			c0,0.2-0.1,0.3-0.3,0.3H123.4z M123.2,69V57.8h1.7V69H123.2z"/>
		<path class="st0" d="M132.1,69.2c-0.6,0-1.2-0.1-1.8-0.3c-0.5-0.2-1-0.5-1.4-0.9s-0.7-1-0.9-1.7s-0.3-1.7-0.3-2.8
			c0-1.2,0.1-2.1,0.3-2.9c0.2-0.7,0.5-1.3,0.9-1.8c0.4-0.4,0.9-0.7,1.4-0.9s1.2-0.3,1.9-0.3c0.6,0,1.2,0,1.8,0.1
			c0.7,0,1.3,0.1,1.9,0.2v1h-3.3c-0.7,0-1.3,0.1-1.8,0.4c-0.5,0.2-0.9,0.7-1.1,1.3c-0.3,0.7-0.4,1.6-0.4,2.8c0,1.2,0.1,2.1,0.4,2.7
			s0.6,1.1,1.1,1.3c0.5,0.2,1.1,0.3,1.8,0.3h3.4v1c-0.3,0.1-0.7,0.1-1.1,0.2c-0.4,0.1-0.9,0.1-1.4,0.1
			C133.1,69.1,132.6,69.2,132.1,69.2z"/>
		<path class="st0" d="M138.3,69V53h1.7v6c0.5-0.4,1.1-0.7,1.9-1s1.5-0.4,2.3-0.4s1.4,0.2,1.9,0.5s0.9,0.8,1.1,1.4
			c0.2,0.6,0.4,1.2,0.4,1.9V69h-1.7v-7.5c0-0.5-0.1-0.9-0.3-1.3c-0.2-0.4-0.5-0.7-0.8-0.9c-0.4-0.2-0.8-0.3-1.3-0.3s-0.9,0-1.3,0.1
			c-0.4,0.1-0.8,0.2-1.1,0.4c-0.4,0.2-0.7,0.4-1.1,0.6V69H138.3z"/>
	</g>
</g>
</svg>
